<?xml version="1.0" encoding="utf-8"?>
<!-- Generator: Adobe Illustrator 26.1.0, SVG Export Plug-In . SVG Version: 6.00 Build 0)  -->
<svg version="1.1" id="Layer_1" xmlns="http://www.w3.org/2000/svg" xmlns:xlink="http://www.w3.org/1999/xlink" x="0px" y="0px"
	 viewBox="0 0 1366 129" style="enable-background:new 0 0 1366 129;" xml:space="preserve">
<style type="text/css">
	.st0{fill:#8D725A;}
	.st1{fill:#7D6D5D;}
	.st2{fill:#685566;}
	.st3{fill:#EFB571;}
	.st4{fill:#F0BA92;}
	.st5{fill:#E5C08C;}
	.st6{fill:#E5C090;}
	.st7{fill:#E6A07A;}
	.st8{fill:#6C4750;}
	.st9{fill:#5E363E;}
	.st10{fill:#724955;}
	.st11{fill:#ECC290;}
	.st12{fill:#F1BE85;}
	.st13{fill:#724550;}
	.st14{fill:#E49E75;}
	.st15{fill:#5E4E61;}
	.st16{fill:#584456;}
	.st17{fill:#A99483;}
	.st18{fill:#E3B37F;}
	.st19{fill:#E6C08E;}
	.st20{fill:#A78C7D;}
	.st21{fill:#F3CA98;}
	.st22{fill:#4B3B53;}
	.st23{fill:#DD9C84;}
	.st24{fill:#EFB16A;}
	.st25{fill:#F3AF8F;}
	.st26{fill:#EAB895;}
	.st27{fill:#E5A37A;}
	.st28{fill:#EFAA96;}
	.st29{fill:#ECC29A;}
	.st30{fill:#F2AC9F;}
	.st31{fill:#E9C296;}
	.st32{fill:#EFC898;}
	.st33{fill:#E8B696;}
	.st34{fill:#E27E42;}
	.st35{fill:#E38E5C;}
	.st36{fill:#E88F81;}
	.st37{fill:#F2C9A9;}
	.st38{fill:#DEA577;}
	.st39{fill:#F0A597;}
	.st40{fill:#F5CAB9;}
	.st41{fill:#E5A770;}
	.st42{fill:#8F7F6D;}
	.st43{fill:#E5887B;}
	.st44{fill:#AD8460;}
	.st45{fill:#F3E3D0;}
	.st46{fill:#988068;}
	.st47{fill:#604F69;}
	.st48{fill:#F4E7DC;}
	.st49{fill:#D98479;}
	.st50{fill:#A29491;}
	.st51{fill:#76616A;}
	.st52{fill:#9F5336;}
	.st53{fill:#D4AF97;}
	.st54{fill:#DFD0D0;}
	.st55{fill:#D5C9CA;}
	.st56{fill:#DCCFB5;}
	.st57{fill:#E2896F;}
	.st58{fill:#EBB372;}
	.st59{fill:#F2BB96;}
	.st60{fill:#DB8F89;}
	.st61{fill:#EAB47A;}
	.st62{fill:#F3DFD1;}
	.st63{fill:#E0B9A1;}
	.st64{fill:#EFDBD4;}
	.st65{fill:#E3984D;}
	.st66{fill:#E48664;}
	.st67{fill:#F2C2A3;}
	.st68{fill:#CD9A98;}
	.st69{fill:#EDAF7E;}
	.st70{fill:#C7694E;}
	.st71{fill:#EADDD6;}
	.st72{fill:#BE918C;}
	.st73{fill:#D08482;}
	.st74{fill:#F7CFB7;}
	.st75{fill:#E47F40;}
	.st76{fill:#E58E7F;}
	.st77{fill:#CD8B6C;}
	.st78{fill:#C77062;}
	.st79{fill:#CF896C;}
	.st80{fill:#E6AA88;}
	.st81{fill:#DE7E6B;}
	.st82{fill:#FCD4B2;}
	.st83{fill:#F4B492;}
	.st84{fill:#EB9389;}
	.st85{fill:#EA9788;}
	.st86{fill:#EFA57A;}
	.st87{fill:#A56F49;}
	.st88{fill:#C0825F;}
	.st89{fill:#DB9951;}
	.st90{fill:#DE863A;}
	.st91{fill:#965452;}
	.st92{fill:#EC9360;}
	.st93{fill:#F2B292;}
	.st94{fill:#F8C8B1;}
	.st95{fill:#D37422;}
</style>
<g id="TgigzK_00000100371424282468102790000009951225665497744816_">
	<g>
		<g>
			<path class="st0" d="M1365.89,53.31c-13.85,0.64-27.7,1.28-41.55,1.91c-6.35,3.33-13.05,3.31-19.88,2
				c-1.3-0.78-2.07-1.74-0.08-2.45c1.22-0.44,2.69,0.17,3.98-0.23c-1.35-0.38-3.67,1.88-3.71-1.62c0.96-0.07,1.94-0.24,2.8,0.39
				c19.48-0.93,38.96-1.87,58.43-2.8C1365.89,51.44,1365.89,52.37,1365.89,53.31z"/>
			<path class="st1" d="M32.29,65.38c-10.63-3.72-21.45-1.06-32.19-0.88c0-0.93,0-1.87,0-2.8c7.4-0.12,14.8-0.27,22.2-0.33
				c2.44-0.02,4.56-0.62,6.15-2.53C30.8,60.41,34.44,61.25,32.29,65.38z"/>
			<path class="st2" d="M1250.04,59.71c-19.69,2.41-39.36,4.96-59.07,7.16c-7.6,0.85-15.3,0.89-22.96,1.3
				c-1.08,1.64-2.66,2.11-4.52,1.79c-9.71-1.68-19.4,0.28-29.08,0.12c-7.34-0.12-14.7-0.32-22.06-0.95
				c-8.26-0.7-16.59-1.04-24.9,0.54c-5.21,0.99-10.58,1.28-15.88,1.88c-14.86,1.29-29.75,0.55-44.63,0.9
				c-3.92,0.09-7.85-0.31-11.76,0.3c-4.65,0.28-9.29,0.68-13.91,1.27c-6.45-0.01-12.91-0.16-19.31,0.94
				c-1.21,0.16-2.39-0.12-3.59-0.15c-6.8-1.65-13.73-1.7-20.65-1.4c-8.99,0.39-17.87-1.55-26.86-0.95c-0.89-0.02-1.77-0.04-2.65-0.2
				c-10.61-1.45-21.2-0.58-31.8,0.18c-7.19-0.72-14.44,0.36-21.61-0.73c-12.84-1.05-25.69-0.04-38.54-0.35
				c-8.59-0.21-17.18-0.09-25.72,1.03c-0.62,0.08-1.29,0.16-1.88,0.01c-5.46-1.36-11.05-1.71-16.63-2.01
				c-0.42-0.29-0.75-0.67-0.98-1.13c1-4.51,4.75-3.28,7.6-3.18c1.71,0.06,1.87-0.08,1.3-1.46c27.39-0.09,54.78-0.18,82.17-0.27
				c1.69-2.22,4.2-1.72,6.5-1.91c7.19-0.58,14.41,1.26,21.59-0.27c7.3,1.22,14.67,1.16,22.01,0.84c3.83-0.16,6.75,2.43,10.41,2.43
				c2.35-0.01,4.7-0.07,7.05-0.02c15.17,2.63,30.46,1.08,45.7,1.29c2.94,0.04,5.99,0.36,8.88-0.67c14.45-0.77,28.9-1.37,43.37-1.08
				c5.98,0.12,11.97,0.22,17.88-0.97c4.39-0.32,8.89-0.25,12.37-3.62c12.33-0.87,24.68-0.73,37.03-0.79
				c7.87,3.6,16.02,3.18,24.44,2.34c7.64-0.76,15.41-0.43,23.1,0.25c11.78,0.07,23.58,0.31,35.13-2.63
				c5.57-1.12,11.27-0.91,16.89-1.45c11.02-1.34,22.03-2.67,33.05-4.01c9.55-2.9,19.34-1.91,29.08-1.68
				c5.94,2.05,6.8,3.64,4.05,7.46c-9.12,0.32-18.27,2.37-27.37-0.4C1252.26,59.15,1251.09,59.25,1250.04,59.71z"/>
			<path class="st3" d="M487.56,27.22c14.89-0.89,29.21,1.13,43.06,7.02c6.8,2.89,14.37,4,21.31,6.64
				c4.57,1.73,8.55,4.82,8.48,10.59c-1.13,1.93-3.08,1.91-4.96,1.97c-11.13,0.36-22.19-1.07-33.29-1.35
				c-6.75-1.29-12.3-5.37-18.47-8.02c-1.83-0.79-3.31-0.66-4.94-0.01c-2.1,0.84-4.18,1.55-6.4-0.33c0.84,0.86,1.63,1.32,2.47,1.73
				c1.1,0.53,1.74,1.35,1.35,2.62c-0.35,1.13-1.24,1.76-2.3,2.2c-4.91,0.5-9.82,0.9-14.7-0.25c-0.4-0.24-0.68-0.68-1.07-0.88
				c-0.65-0.33,0.93-1.48-1.03-1.6c-4.2-0.26-8.48-6.73-7.61-10.72c0.56-2.55,2.64-3.46,4.86-3.76c2.13-0.3,3.76-0.95,5.1-2.73
				C481.41,27.71,484.88,28.39,487.56,27.22z"/>
			<path class="st4" d="M1115.06,61.64c-12.6,0.09-25.21,0.18-37.81,0.26c-4.53,1.99-9.03,2.77-13.43-0.35
				c3.45-7.03,7.9-12.68,16.79-13c9-0.33,16.4-8.31,26.18-5.39c2.01,0.6,4.23,0.53,6.35,0.77c-0.77,2.95-0.67,5.21,3.48,4.57
				c0.91-0.14,1.8,0.44,2.71,0.64c3.49,0.8,6.88,1.44,7.39-3.73c0.12-1.22,1.09-2.2,2.55-2.34c5.22,0.93,9.12,2.36,10.95,8.66
				c1.4,4.84,7.46,6.62,12.77,7.09c3.75,0.33,7.55,0.16,11.33,0.21c-0.26,2.18-2.02,2.04-3.54,2.16c-3.12,0.25-6.23,0.75-9.36,0.51
				c-9.69-0.74-19.32,1.49-29.03,0.53C1119.96,62.01,1117.6,60.53,1115.06,61.64z"/>
			<path class="st5" d="M668.25,56.21c-3.49-3.75-8.53-3.74-12.95-4.45c-3.11-0.5-7.84,1.29-7.96-2.92
				c-0.13-4.8,2.91-9.25,8.62-10.19c6.62-1.09,13.29-1.91,19.94-2.87c14.39-2.08,29.07-6.86,43.09-5.44
				c12.24,1.24,25.06,3.37,37.24,7c4.24,1.26,8.7,1.77,13.02,2.78c9.9,2.31,17.94,8.47,26.73,13c5.64,2.91,5.84,7.26,0.16,11.03
				c-0.99,1.82-2.46,1.35-3.94,0.79c-1.73-1.23-2.6-3.05-3.36-4.94c-2.27-5.65-5.38-6.92-10.99-4.5c-2.67,1.15-4.58,0.26-4.67-2.54
				c-0.16-4.88-3.52-6.23-7.34-6.92c-2.66-0.48-5.13-1.21-7.62-2.25c-3.74-1.56-7.57-2.84-11.81-2.82
				c-5.73,0.02-10.74-3.34-16.44-3.82c-5.41-0.46-10.73-2.2-16.25-0.7c-1.48,0.4-3.18,0.34-4.7,0.02c-8.55-1.79-15.56,1.5-22.25,6.2
				c-2.29,1.61-4.86,2.81-7.46,3.95c-2.79,1.23-2.91,3.53-0.36,5.26c1.7,1.15,3.58,1.77,5.77,1.63c1.83-0.12,3.87-0.15,4.78,2.07
				c-0.04,1.14-0.62,1.93-1.62,2.45c-2.78,0.41-5.54,0.93-8.33,1.26c-2.29-0.22-4.6-0.21-6.9-0.37
				C670.7,58.8,669.09,58.12,668.25,56.21z"/>
			<path class="st6" d="M886.02,55.18c2.22-1.23,4.44-2.47,6.66-3.7c1.66,0.14,3.38,0.4,3.8-1.89c3.65-5.86,10.5-4.29,15.71-5.93
				c17.71-5.59,36.45-6.3,52.18,3.84c7.18,4.63,15.73,6.25,21.56,6.72c7.95,0.63,11.65,3.24,15.66,8.3
				c-3.59,3.11-8.13,1.73-12.08,1.91c-9.8,0.45-19.64,0.69-29.47,0.88c-1.09,0.02-2.17,0.36-3.21-0.19c-2.37-3.57-1.18-6,3.31-7.05
				c1.58-0.37,4.32,0.67,4.52-1.21c0.2-1.9-1.39-4.13-2.76-5.68c-1.38-1.55-3.78-1.21-5.79-0.73c-3.51,0.84-6.55,0.41-8.82-2.67
				c-0.27-0.37-0.65-0.94-1.01-0.93c-6.58,0.19-13.24-4.08-19.71,0.13c-3.12,2.03-6.11,2.13-9.32,0.5c-3.44-2.62-4.02,0.8-5.41,2.5
				c-5.9,2-11.14,4.96-15.06,9.91c-2.77,0.7-5.58,0.88-8.23-0.3C886.74,58.79,884.69,57.85,886.02,55.18z"/>
			<path class="st7" d="M1276.88,54.15c-9.79-0.02-19.58-0.05-29.36-0.07c3.84-2.81,3.4-8.73,9.86-10.3
				c10.63-2.58,21,0.29,31.36-0.65c6.92-0.63,14.16,0.36,20.82-2.68c1.17-0.53,3.78-0.67,3.89-0.37c0.94,2.71-2.7,4.44-2.38,6.33
				c0.6,3.62-9.67,1.17-3.59,6.89c-0.98,0.06-1.95,0.13-2.93,0.19c-1.34,1.07-2.67,2.15-4.55,2.09
				C1292.26,55.33,1284.45,56.69,1276.88,54.15z"/>
			<path class="st8" d="M363.49,50.55c3.86,0.24,7.72,0.48,11.58,0.72c-1.85,3.27-5.06,1.52-7.31,2.03c8.5,0,17.36-0.05,26.21,0.04
				c2.01,0.02,4.73-0.54,4.57,2.97c-1.6,2.07-3.92,1.64-6.06,1.64c-12.03,0.02-24.07,0.2-36.09-0.45
				c-21.95-1.87-43.96-0.45-65.93-0.98c-7.53-0.18-15.03-0.34-22.56,0.33c-3.19,0.28-6.5-0.75-9.76-1.16
				c-2.64-0.33-5.27-0.93-7.94-0.2c-5.53-0.33-10.93,1.32-16.46,1.08c-6.79-0.14-13.59,0.29-20.37-0.23
				c-2.89-1.98-1.58-3.17,0.87-3.9c2.72-0.81,5.62-0.9,8.34-0.43c5.97,1.02,11.77-0.04,17.62-0.74c0.46-0.06,0.77-0.47,0.95-0.92
				c2.6-0.58,5.21-1.17,7.81-1.75c1.51-1.62,3.43-2.19,5.53-1.72c3.85,0.86,7.77,0.48,11.64,0.79c5.43,1.23,10.89,1.75,16.4,0.5
				c10.88,0.73,21.77,1.04,32.67,0.93c7.32-0.57,14.66-0.67,21.99-0.96c6.45,2.2,12.98-0.31,19.46,0.28
				C359.12,48.64,361.74,48.21,363.49,50.55z"/>
			<path class="st9" d="M32.29,65.38c-1.28-2.18-2.55-4.36-3.83-6.54c3.63,0.41,7.25,0.83,10.88,1.24
				c7.86,0.43,15.5-2.45,23.39-1.51c8.7,0.11,17.42,2.11,26.07-0.39c4.52-0.54,9.11-1.12,13.61-0.61c5.43,0.61,10.4-2.53,15.79-1.32
				c5.29-1.5,10.7-1.15,16.09-0.99c8.84-1.99,17.89-1.22,26.82-2.04c3.24,1.14,6.62,0.22,9.91,0.61c0.91,0.35,1.02,1.08,0.94,1.9
				c-0.37,1.14-1.27,1.79-2.37,2.01c-5.68,1.15-10.75,4.58-16.8,4.38c-3.79-0.4-7.4,1.2-11.17,0.99
				c-10.83,0.87-21.71,0.94-32.53,1.87c-8.01-0.43-15.81,1.5-23.74,2.09c-7.83,0.59-15.53-0.66-23.28-0.26
				c-6.2-1.81-12.72-0.83-19.01-2.06c-1.74-0.34-3.39,0.08-4.38,1.9c-0.59,1.08-1.59,1.43-2.77,0.74
				C34.69,66.72,33.49,66.05,32.29,65.38z"/>
			<path class="st10" d="M792.32,63.51c1.28,0.21,2.55,0.42,3.83,0.63c1.27,0.16,2.53,0.31,3.8,0.47c2.08,0.59,4.17,1.18,6.25,1.76
				c-2.38,0.31-4.77,0.62-7.15,0.93c-2.63,0.34-5.25,0.69-7.88,1.04c-5.87,2.55-11.96,1.21-17.94,0.79
				c-2.79-0.19-5.57-0.75-8.39-0.87c-7.41-1.34-14.79-2.51-22.39-1.48c-8.94,1.21-17.51-2.62-26.37-2.31
				c-7.88,0.27-15.62-0.99-23.44-1.38c-9.32-0.2-18.64,0.41-27.94-0.32c-1.07-3.78-6.21-2.87-7.56-6.34
				c3.71-0.08,7.42-0.16,11.12-0.24c3.77,0.31,7.55,0.63,11.32,0.94c8.65,0.87,17.2-1.05,25.83-0.99c2.99,0.02,5.97-0.37,8.93,0.28
				c8.23,0.75,16.43,1.96,24.73,1.44c4.91,0.51,9.79,1.34,14.75,1.4c3.63-1.04,7.28-0.12,10.75,0.53
				c7.34,1.39,14.71,1.49,22.11,1.56C788.82,61.4,790.59,62.42,792.32,63.51z"/>
			<path class="st11" d="M487.56,27.22c-6.07,0.78-7.68,9.45-14.96,8.28c-0.43-0.07-1.78,1.86-1.59,2.17
				c2.04,3.19,1.63,8.36,7.08,8.91c0.64,0.06,1.26,0.4,1.89,0.61c-0.61,0.46-1.23,0.93-1.84,1.39c-2.1,3.16-5.57,1.52-8.35,2.3
				c-0.57,0.05-1.13,0.08-1.7,0.08c-6.57,0.03-13.14,0.04-19.71-0.01c-1.82-0.01-3.81,0.42-5.26-1.25c-5.19-3.09-4.15-6.08-0.3-9.7
				c5.87-5.53,11.77-9.96,20.71-7.87C472.17,34.13,479.16,27.06,487.56,27.22z"/>
			<path class="st12" d="M266,49.62c-5.68-0.34-11.36-0.68-17.03-1.02c-1.12-2.17-2.19-4.13,1.6-5c10.68-2.46,21.23-5.36,32.2-6.64
				c3.42-0.4,6.52-3.45,9.77-5.29c-0.72,3.13,0.83,4.36,3.8,4.38c1.72,0.59,3.8,0.33,4.99,2.13c-1.25,5.59-5.69,7.65-10.88,4.99
				c-1.37-0.7-2.56-1.93-4.31-1.13c-0.32,0.15-0.44,0.53-0.23,0.76c1.11,1.21,2.56,1.84,4.18,1.84c8.46-0.02,16.7,3.42,25.28,1.59
				c0.61-0.13,1.26-0.05,1.88,0.09c1.72,0.39,3.94,0.89,3.65,2.88c-0.23,1.6-2.43,0.6-3.74,0.82c-0.61,0.1-1.26,0.01-1.84,0.3
				c-11.12-0.06-22.24-0.11-33.36-0.17C276.66,49.64,271.3,50.62,266,49.62z"/>
			<path class="st13" d="M469.48,49.45c2.89-0.29,5.78-0.59,8.66-0.88c5.63,0.02,11.26,0.04,16.89,0.07
				c4.6-2.54,9.62-1.38,14.25-0.8c3.76,0.48,7.63,0.99,11.39,1.77c13.24,0.62,26.48,1.24,39.73,1.86c1.9,0.26,3.8,0.52,5.7,0.77
				c1.25,1.9,0.96,3.49-0.96,4.77c-12.66,1.89-25.31,1.48-37.97-0.1c-9.19-1.15-18.41-1.08-27.67-1.13
				c-9.51-0.06-19.15,0.8-28.56-1.52C468.85,53.12,469.11,51.3,469.48,49.45z"/>
			<path class="st14" d="M62.7,60.55c-7.81,0.69-15.61,0.88-23.37-0.47c5.13,0.48,7.8-1,7.33-6.89c-0.36-4.47,4.38-5.09,7.4-5.78
				c8.44-1.93,14.06-7.82,20.55-12.62c1.89-1.4,5.27-1.37,7.91-1.16c6.44,0.51,12.24-4.95,18.87-1.82c1.32,1.08,3.82,1.27,3.05,3.93
				c-0.29,0.35-0.66,0.62-1.08,0.82c-4.11-0.01-7.49,1.94-10.76,4.04c-2.55,1.64-4.83,2.24-6.95-0.52c-0.19-0.25-0.38-0.5-0.64-0.67
				c-3.24-2.09-13.51,2.62-13.9,6.43c-0.17,1.7-0.47,3.36-0.78,5.03c-1.79,1.81-2.32,4.28-3.46,6.44
				C65.92,59.09,64.74,60.29,62.7,60.55z"/>
			<path class="st15" d="M565.12,56.04c0.33-1.27,0.66-2.54,0.99-3.8c30.39,0.34,60.73,1.8,91.03,4.21c2.33,0.72,4.68,1.39,6.98,2.2
				c0.78,0.28,1.44,0.91,2.15,1.39c-0.95,0.28-1.9,0.57-2.85,0.85c-3.39,2.56-7.29,1.3-10.9,1.12c-13.79-0.69-27.58-1.49-41.38-1.9
				c-11.15-0.33-22.27-1.37-33.43-1.14C573.53,57.89,568.96,58.48,565.12,56.04z"/>
			<path class="st16" d="M469.48,49.45c0.35,1.3,0.7,2.6,1.06,3.91c-3.22,2.52-7,0.86-10.49,1.35c-8.2,0-16.4,0.08-24.59-0.03
				c-6.17-0.08-12.29,0.06-18.29,1.64c-4.91,1.34-9.92,0.91-14.91,0.77c-1.48-0.04-2.74-0.54-3.6-1.81
				c-11.34-0.05-22.68-0.13-34.03-0.11c-2.39,0-5.61-0.92-5.5-2.49c0.18-2.48,3.29-0.98,5.09-1.13c3.6-0.31,7.24-0.2,10.86-0.27
				c22.33-0.26,44.66-0.52,66.99-0.77c7.47-1.03,14.98-0.16,22.46-0.49c1.67-0.07,3.45,0.55,5.01-0.55L469.48,49.45z"/>
			<path class="st17" d="M956.18,63.51c15.13-0.33,30.27-0.66,45.4-1c20.75-0.32,41.5-0.64,62.25-0.96
				c4.47,0.12,8.95,0.23,13.43,0.35c-2.5,4.08-6.53,3.71-10.5,3.51c-2.74-1.99-5.45,0.21-8.21,0.14
				c-11.03-0.31-22.07-0.06-33.1-0.11c-7.88-0.03-15.69,1.06-23.54,1.37c-14.77,0.12-29.54-0.15-44.31,0.37
				c-2.73,0.1-5.5-1.91-8.19,0.16c-12.87-1.65-25.72-3.73-38.78-2.93c0.31-2.5,2.3-2.59,4.18-2.77c1.87-0.18,3.75,0.13,5.62,0.11
				c10.06-0.54,20.13-0.21,30.19-0.22C952.71,61.54,954.7,61.83,956.18,63.51z"/>
			<path class="st18" d="M104.21,35.57c-0.94-1.25-1.88-2.5-2.83-3.76c13.83-2.76,26.5,2.56,39.53,5.48
				c8.44,1.89,17.47,2.17,23.88,9.17c1.64,1.79,5.31,3.7-0.21,5.27c-0.47,0.13-0.79,0.75-1.18,1.15c0.57,0.14,1.13,0.39,1.71,0.41
				c3.94,0.13,7.87,0.21,11.81,0.31c-1.55,3.05-3.56,2.01-5.61,0.62c-3.46,0.07-6.92,0.14-10.37,0.2c-0.89,0.43-1.85,0.27-2.78,0.28
				c-4.88,0.06-4.88,0.05-4.22-4.56c0.6-4.2-4.6-8.51-8.89-6.8c-4.44,1.76-7.79,0.87-12.29-0.59c-6.3-2.05-12.59-4.55-19.15-6.01
				c-2.41-0.54-3.86,0.52-5.58,1.57c-1.24,0.75-2.67,1.28-3.92,0.14C103.12,37.57,103.29,36.49,104.21,35.57z"/>
			<path class="st19" d="M301.07,38.38c-1.89-0.32-3.78-0.63-5.66-0.95c-1.28-1.3-3.75-2.14-1.85-4.67
				c17.61,5.53,36.01,4.67,54.06,6.71c6.82,0.77,14.56,1.89,15.87,11.09c-8.79-0.07-17.58-0.15-26.38-0.22
				c0.14-3.73,3.84-3.45,5.95-5.1c-1.35-1.54-3.2-1.16-4.79-1.08c-11.11,0.51-21.8-2.49-32.71-3.68
				C303.84,40.28,302.09,40.08,301.07,38.38z"/>
			<path class="st20" d="M1115.06,61.64c14.05-2.11,28.2-1.87,42.35-1.97c2.31-0.02,4.62-0.41,6.92-0.63
				c16.71-0.32,33.43-0.63,50.14-0.95c-5.41,0.85-10.82,1.7-16.22,2.55c-11.2,1.26-22.48,1.37-33.72,2
				c-0.8,0.04-1.57,0.09-2.14,0.75C1146.61,62.65,1130.65,67.05,1115.06,61.64z"/>
			<path class="st21" d="M920.03,63.44c-3.14,0.32-6.27,0.65-9.41,0.97c-9.5-0.02-19-0.04-28.5-0.07c-3.39-5-1.27-7.71,3.9-9.17
				c2.43,5.21,7.71,2.02,11.32,3.72c5.96-0.64,11.9-1.27,17.82-2.32C919.63,55.78,921.82,59.42,920.03,63.44z"/>
			<path class="st22" d="M171.3,54.22c1.87-0.21,3.75-0.41,5.61-0.62c12.62-0.77,25.24-1.55,37.86-2.33
				c6.25-0.66,12.53-0.1,18.79-0.31c1.7-0.06,3.45,0.4,5.09-0.41c0.84-0.06,1.67-0.13,2.51-0.19c0.97,0.32,1.94,0.63,2.9,0.95
				c-0.94,0.35-1.86,0.83-2.83,1.05c-7.94,1.8-15.96,1.59-24.01,1.01c-1.87-0.13-3.84-0.22-5.07,1.69
				c-1.93,2.36-4.78,2.21-7.41,2.64c-3.48,1.42-7.17,0.38-10.72,0.91c-2.55,0.49-5.13,0.56-7.71,0.64
				c-3.28-0.94-6.58-1.57-10.06-1.21c-1.84,0.19-3.78-0.02-4.86-1.96C171.36,55.45,171.33,54.84,171.3,54.22z"/>
			<path class="st23" d="M1129.28,43.08c-0.64,2.4-2.48,4.62-0.4,7.32c1.63,2.11-0.36,1.37-1.49,1.59
				c-5.4,1.06-10.69-3.94-16.15-0.31c-0.1,0.07-1.41-1.04-1.32-1.35c0.69-2.3-0.53-5.61,3.22-6.39c4.48,3.97,7.08-3.2,11.18-1.84
				C1125.91,42.63,1127.62,42.76,1129.28,43.08z"/>
			<path class="st13" d="M469.54,49.47c-9.08,2.36-18.33,0.45-27.48,1.03c0.36-0.27,0.71-0.54,1.07-0.81
				C451.94,49.62,460.74,49.54,469.54,49.47z"/>
			<path class="st8" d="M238.65,50.55c-7.91,1.93-15.92,0.62-23.88,0.72C222.73,51.03,230.69,50.79,238.65,50.55z"/>
			<path class="st24" d="M293.55,32.76c0.62,1.56,1.23,3.11,1.85,4.67c-3.37-0.75-6.42-1.66-2.86-5.76
				C292.88,32.03,293.22,32.4,293.55,32.76z"/>
			<path class="st21" d="M896.48,49.59c0.69,1.01,1.38,2.02,2.08,3.03c-1.96-0.38-3.92-0.76-5.88-1.14
				C893.94,50.85,895.21,50.22,896.48,49.59z"/>
			<path class="st25" d="M567.19,65.31c-7.88,1.78-16.02,2.91-23.52,5.68c-2.69,0.99-4.36,5.77-5.67,9.13
				c-3.67,9.43-11.48,13.24-20.5,15.7c-14.7,4-29.09,1.17-42.41-4.33c-5.69-2.35-11.3-7.3-16.78-10.99
				c-3.65-2.45-9.42-4.34-14.52-5.5c-6.54-1.49-4.72-12.04-13.05-11.23c3.48-3.21,7.71-1.32,11.56-1.44
				c2.92-0.09,5.91,0.27,8.87,0.3c1.73-0.18,3.41,0.39,5.14,0.47c7.17,0.33,7.17,0.35,9.53,6.78c0.62,1.68,8.08,3.63,9.37,2.4
				c0.81-0.77,0.52-1.72,0.08-2.58c-1.01-1.95-0.99-3.87,0.04-5.77c-0.26-2.77-2.55-1.5-3.75-1.51c-1.83-0.02-3.69,0.43-5.57,0.22
				c-1.74,0.34-3.47,0.57-5.25,0.47c-9.22-0.12-18.4-1.1-27.63-0.94c-1.28,0.02-2.51-0.1-3.43-1.15c-0.53-3.93,1.79-5.33,5.21-5.34
				c13.42-0.07,26.81-1.61,40.24-0.96c4.15,0.47,8.36,0.88,12.5,0.51c5.98-0.54,10.71,0.8,13.4,6.52c0.13,1.49-0.84,1.9-2.06,1.87
				c-2.97-0.07-5.93-0.36-8.89-0.5c-0.37-0.02-0.74,0-1.12,0c0.47,0,0.95-0.02,1.42,0c4.2,0.19,8.38,0.8,12.59,0.44
				c3.42,1.54,6.33,4,8.28,4.7c-3.63-0.34-6.12-5.15-10.3-7.61c-1.38-0.81-1.54-2.28-1.02-3.74c0.41-1.16,1.35-1.86,2.55-1.64
				c4.54,0.82,9.11,0.17,13.66,0.42c1.83,0.1,3.36,0.83,3.99,2.74c-0.88,2.48-0.02,3.81,2.67,4.03c7.45,0.62,14.92,1.73,22.23-0.93
				c3.21-1.32,6.8-1.07,10.03-2.35c0.57-0.23,1.43-0.36,1.83,0.02c3.36,3.25,6.88,1.2,10.37,0.4c1.7,0.21,3.23,0.69,3.87,2.5
				C571.02,64.6,567.86,63.47,567.19,65.31z"/>
			<path class="st26" d="M1160.51,71.95c4.66,5.78,7.55,13.59,4.72,19.35c-2.82,5.72-11.11,6.94-18.36,6.92
				c-6.93-0.02-14.03,1.89-20.76,0.9c-16.88-2.46-34.79,3.96-50.81-6.02c-4.53-2.82-8.51-5.78-10.75-10.65
				c-1.02-2.21-2.17-3.9-5.03-4.23c-1.48-0.17-3.71-1.48-3.98-2.64c-0.56-2.41,2.77-1.19,3.64-2.65c0.9-1.18,2.22-0.87,3.43-0.95
				c2.76,0.42,5.2-1.12,7.88-1.25c1.48,0.55,2.93,0.82,4.59,0.54c10.52-1.78,21.12-2.88,31.79-2.99c2.54-0.03,5.93-1.11,7.07,2.14
				c1.14,3.28,2,6.95-1.04,10.01c-3.51,1.32-2.76-3.37-4.76-3.47c1.44,3.54,5.22,4.97,8.28,7.24c2.07,1.53,2.07,3.71,1.56,5.92
				c-0.57,2.48,0.59,3.17,2.93,3.55c4.96,0.8,9.05-1.72,12.85-3.77c6.11-3.29,11.03-3.53,18.2,0.59c-0.1-5.06-2.52-8.09-7.37-9.89
				c-4.82-1.79-5.56-5.74-2.58-10.56c1.8-0.63,3.62-0.52,5.45-0.14c1.36,0.81,1.79,2.27,2.5,3.55c0.26-1.31-1.93-2.18-0.66-3.66
				C1153.39,68.74,1157.54,67.38,1160.51,71.95z"/>
			<path class="st27" d="M1303.71,55.75c6.88-0.18,13.75-0.35,20.63-0.53c6.59,2.59,9.61,9.19,15.07,13.04
				c0.73,3.28-0.72,6.42-0.61,9.67c0.03,0.76-0.52,1.48-1.18,1.95c-7.26,5.2-14.91,9.55-24.14,10.23c-1.44,0.11-2.85-0.27-4.11-0.93
				c-2.16-1.13-4.17-1.23-6.14,0.38c-1.01,0.82-2.25,1.37-3.52,1c-4.99-1.45-9.48,0.95-13.57,2.64c-3.68,1.51-6.34,0.32-9.39-0.36
				c-2.92-0.65-6.5-0.69-6.48-5.15c0.01-1.08-1.26-1.27-2.1-1.63c-2.23-0.98-3.18-2.72-2.35-4.91c1.02-2.65-0.26-2.98-2.46-3.51
				c-4.31-1.05-8.76-8.78-7.81-12.98c0.52-2.28,2.04-3.54,4.27-3.73c2.96-0.25,6-0.56,8.7,1.22c0.67,4.03,0.55,4.12-3.84,3.11
				c1.75,0.91,3.38,1.27,5.65,0.65c5.46-1.49,12.03,1.3,14.82,5.87c1.02,1.67,1.83,1.03,3.04,0.46c5.44-2.55,9.15-1.14,11.64,4.42
				c0.51,1.13,0.79,2.29,1.82,3.18c1.34,1.17,2.49,2.92,3.35-0.3c0.73-2.74,4.16-3.12,5.11-5.86c1.77-5.13-0.62-8.91-3.52-12.63
				c1.85,3.11,1.16,5.64-2.25,6.46c-4.47,1.07-9.05,0.49-13.58,0.08c-1.11-0.1-2.22-0.9-2.57-1.89c-1.07-3.05-3.93-3.67-6.35-4.94
				c-0.68-0.97-0.66-1.87,0.32-2.65c0.83-0.91,1.43-2.31,2.83-2.28C1291.24,55.99,1297.47,54.23,1303.71,55.75z"/>
			<path class="st28" d="M896.52,70.3c10.74,0.18,21.49,0.36,32.23,0.54c-2.71,2.33-5.97,0.53-8.52,1.14
				c2.29,0.03,4.99-0.24,7.64,0.1c2.94,0.38,5.45,1.44,4.69,5.17c0.94-1.4-0.31-3.45,1.31-4.71c0.56-0.42,1.22-0.51,1.9-0.5
				c1.09,0.11,2.15,0.49,3.27,0.4c4.37-0.33,6.66,2.25,6.92,5.97c0.28,3.96,1.67,3.73,4.66,2.55c2.96-1.17,6.41-0.9,8.86-3.61
				c1.02-1.13,2.82-0.41,3.83,0.64c1.77,1.86,3.61,1.85,5.98,1.27c3.09-0.76,4.27,0.53,3.32,3.5c-0.98,3.09-2.04,6.22-4.22,8.78
				c-2.64,3.36-5.01,6.98-7.99,10.01c-2.47,2.52-5.53,4.35-9.62,3c-1.17-0.39-2.85,0.45-4.18,1c-0.36,0.15-0.5,1.37-0.35,2.01
				c0.27,1.21,3.54,0.58,2.1,2.53c-0.54,0.72-3.28,0.42-4.71-0.16c-4.96-2.01-7.66,3.99-12.21,3.08
				c-5.31-2.02-10.65-2.98-16.33-1.38c-2.09,0.59-4.39,0.1-6.52-0.3c-3.08-0.57-3.86-2.56-2.26-5.34c0.3-0.53,0.71-0.99,0.91-1.59
				c2.37-6.85,6.81-8.6,13.02-4.88c4.06,2.44,6.64-1.26,9.79-2.17c1.89-0.55,3.5-2.35,5.78-2.75c1.22-0.21,2.31-1.16,1.98-2.71
				c-0.27-1.27-1.41-1.99-2.46-1.56c-2.13,0.88-3.83-2.9-5.94-0.36c-0.36,0.29-0.77,0.5-1.2,0.66c-3.67-0.07-7.01,2.53-10.81,1.3
				c-3.26-1.9-6.48-3.81-5.9-8.38c0.17-1.35-0.36-2.46-1.92-2.7c-0.86-0.13-1.47,0.4-2.05,0.93c0.63-0.15,1.26-0.47,1.91-0.27
				c3.63,1.12,1.16,3.87,1.6,5.85c-2.78,3.12-6.54,3.19-10.11,2.53c-3.04-0.56-3.06-3.59-4.06-6.08
				C894.99,79.17,897.63,74.75,896.52,70.3z"/>
			<path class="st29" d="M896.52,70.3c4.28,1.09,4.16,1.01,2.14,4.32c-2.68,4.4-0.07,9.11,1.31,12.66c1.26,3.24,6.39,0.95,9.74-0.37
				c2.62-0.49,2.74,2.39,4.45,3.26c1.1,0.56,1.8,1.62,3.07,0.49c3.9,0.95,7.33-3.65,11.37-0.93c0.76,0.71,1.46,1.5,2.36,2.06
				c-0.89-0.57-1.6-1.35-2.34-2.08c-0.16-2.37,1.5-3.47,3.37-3.88c3.99-0.88,0.16,2.25,1.3,2.68c0.93,0.35,2.12,0.03,3.04,0.38
				c1.2,0.45,2.81,1.04,3.23,2c0.46,1.05,0.24,3.34-0.5,3.8c-5.58,3.43-12.09,5.25-17.02,9.9c-1.05,1-1.74-0.73-1.94-1.79
				c-1.16-6.14-6.81,0.06-8.99-3.21c-1.51,3.08-3.66,6.05-4.29,9.3c-0.34,1.76,2.65,0.69,3.99,0.64c5.78-0.21,11.62-0.34,17.31-1.27
				c5.51-0.89-0.28,4.91,3.29,4.76c-3.31,6.49-8.92,2.38-12.88,1.89c-12.33-1.51-23.85-5.16-26.83-19.59
				c1.96-1.79,3.49-0.68,4.8,0.83c1.01,1.17,1.65,2.67,3.2,3.32c1.52,0.64,2.31,3.36,4.18,2.32c2.2-1.22,3.18-3.76,4.11-6.07
				c0.39-0.98-0.31-1.71-1.14-1.15c-4.35,2.94-8.35,1.2-12.48-0.51c-1.08-0.45-2.48-0.56-3.63,0.29c-1.79-1.44-3.36-3.32-6.09-2.77
				c-10.43,2.1-15.84-5.21-21.81-11.41c-2.7-2.81-3.01-5.6,0.47-8.11c1.74-1.88,4.02-0.7,6.03-1c1.76-0.27,3.68,0.52,5.25-0.86
				C881.92,70.23,889.22,70.27,896.52,70.3z"/>
			<path class="st30" d="M749.74,96.2c-1.39,1.44-0.93,6.73-5.36,2.43c-0.3-0.29-7.2-3.36-7.34,3.14c-0.01,0.56-1.37,1.67-1.92,1.57
				c-12.77-2.39-24.19,3.89-36.34,5.39c-0.31,0.04-0.85,0.21-0.89,0.12c-5.65-10.62-16.03-1.57-23.4-5.49
				c-6.15-3.28-12.96-23.17-9.07-29.44c1.68-2.71,0.93-4.95,0.95-7.45c1.91-2.43,4.64-1.15,7-1.5c5.32,0.09,10.64-0.09,15.95-0.58
				c0.99-0.09,1.87,0.03,2.66,0.62c0.99,1.02,1.29,2.36,0.42,3.38c-1.6,1.87-2.13,4.04-2.75,6.29c-0.61,2.24-2.13,3.86-4.62,4.06
				c-2.42,0.19-3.83-1.15-4.32-3.41c-0.72-3.29-4.53-0.24-5.66-2.72c-0.19-0.41-0.51-0.36-0.33-0.19c0.22,0.21,0.48,0.4,0.74,0.56
				c1.56,0.95,2.24,2.58,3.05,4.06c1.87,3.39,1.34,5.16-2.31,6.39c-2.17,0.73-3.1,1.87-3.14,3.77c1.1-4.57,4.79-1.7,7.19-1.9
				c3.12-0.25,5.2,1.78,5.92,4.91c0.11,0.49-0.23,0.99,0.08,1.45c0.22-0.41,0.37-0.86,0.64-1.24c2.15-3.08,4.79-3.09,7.71-1.16
				c0.16-0.19-0.07-0.23-0.39-0.48c-1.76-1.36-4.55-1.96-4.07-5.05c0.32-2.07,1.77-3.12,3.64-3.88c3.08-1.27,4.61,1.02,6.45,2.6
				c0.58,0.5,0.77,1.35,1.46,1.78c3.05,0.04,5.74,2,9.07,1.2c2-0.48,3.13,1.49,2.77,3.4c-0.52,2.83,0.86,5.54,0.22,8.33
				c-0.18,0.77-0.15,1.62,0.69,2.03c0.99,0.49,2.11,0.06,2.54-0.67c2.23-3.76,6.03-4.89,9.87-5.73c3-0.65,3.31-4.78,6.72-4.62
				c3.3-0.41,6.1,0.11,8.43,2.91c1.96,2.36,5.46,1.93,8.05,3.27C750.35,95.04,750.22,95.65,749.74,96.2z"/>
			<path class="st31" d="M301.1,111.12c-5.88-4.71-12.93-7.77-17.8-13.99c-9.06-11.56-24.29-10.2-36.44-15.34
				c-9.68-4.1-15.68-9.35-17.77-19.24c0.48-2.68,2.61-2.26,4.41-2.15c10.62,0.66,21.24,1.03,31.88,0.85c1.57-0.03,3.14-0.01,4.7,0
				c3.96,2.15,8.19,3.13,12.73,3.33c2.71,0.12,4.89-0.15,6.16-2.79c0.92-0.53,1.93-0.49,2.94-0.5c1.08,0.03,2.13,0.14,3,0.86
				c1.45,4.16,3.56,8.32,0.16,12.55c-7.12,6.11-15.43,7.11-23.6,2.84c-1.4-0.73-2.93-1.1-4.38-1.7c-1.06-0.44-2.41-1.76-3.31-0.31
				c-0.96,1.56-0.4,3.31,0.98,4.63c0.71,0.68,1.65,0.89,2.59,1.01c6.55,0.86,11.81,3.79,15.82,9.05c1.64,2.15,3.07,4.72,6.53,4.64
				c1.31-0.03,1.91,1.5,2.87,2.27C295.79,101.57,300.16,105.33,301.1,111.12z"/>
			<path class="st32" d="M749.74,96.2c-0.01-0.6-0.01-1.19-0.02-1.79c-2.56-1.07-6.26-1.77-6.81-4.28
				c-0.88-4.01-3.02-8.46,0.12-12.52c1.24-1.61,2.11-3.11,0.79-5c-1.39-1.98-3.39-2.79-5.73-2.33c-2.09,0.42-3.96,1.13-2.93,4.05
				c0.8,2.28,0.35,4.47-2.39,5.16c-2.75,0.7-3.98-1.09-4.64-3.41c-0.68-2.38-1.58-4.69-2.33-7.05c-0.67-2.12-0.22-3.72,2.49-3.78
				c2.14,0.79,4.35,0.63,6.55,0.64c10.04,0.05,20.09-0.71,30.11,0.39c8.74,0.68,17.47,1.37,26.21,2.05
				c0.16,0.23,0.31,0.47,0.46,0.71c-0.07,0.13-0.12,0.29-0.22,0.4c-1.38,1.39-3.12,0.35-4.66,0.66c1.71-0.18,3.35,0.35,5.02,0.52
				c1.21,0.12,2.44,0.33,3.37,1.26c3.54,4.27,1.32,6.74-2.54,9.25c-8.6,5.59-18.74,4.57-28.11,6.8
				C758.74,89.3,752.23,89.24,749.74,96.2z"/>
			<path class="st33" d="M1268.22,62.59c-0.75,0.19-1.48,0.48-2.24,0.54c-3.14,0.25-8.63-2.96-8.4,2.46
				c0.15,3.41-0.57,12.49,9.01,9.01c0.58-0.21,1.91,1.28,2.73,2.13c1.47,1.54-0.09,2.32-0.87,3.45c-0.71,1.04-1.52,2.71-1.14,3.64
				c0.65,1.58,2.05,0.26,3.21-0.01c0.69-0.16,1.97,0.19,2.28,0.71c5.5,9.4,11.39,9.75,23.9,3.96c2.79-1.29,7.37-3.67,11.44-2.2
				c8.87,3.19,15.11,1.24,23.11-4.84c5.52-4.2,4.65-9.45,8.16-13.18c4.33,5.26,0.24,13.89-5.52,17.09
				c-16.11,8.95-34.6,4.31-51.37,9.86c-5,1.65-12.7-2.92-18.53-5.87c-6.05-3.06-12.93-4.24-18.48-7.67
				c-5.32-3.29-10.38-6.94-16.12-9.62c-1.51-0.71-3.01-2.72-1.84-4.74c1.21-2.07,3.44-4.16,5.73-3.33
				c6.58,2.38,11.85-2.52,17.92-2.52c0.52,0,1.04-0.8,1.57-1.23c-0.91-0.17-1.82-0.35-2.73-0.52c10.24-0.33,20.48-0.66,30.73-0.99
				c0.43-0.24,0.74-0.13,0.92,0.33c0.32,0.55,0.63,1.1,0.95,1.65c0.34,1.12-0.32,2-1.19,2.17
				C1277.03,63.74,1272.54,66.2,1268.22,62.59z"/>
			<path class="st34" d="M101.3,94.16c-0.29,0.1-0.59,0.19-0.89,0.25c-1.9,1.1-2.5-0.11-2.88-1.6c-0.26-1.01,0.36-2.18-0.59-3.06
				c-2.82-1.07-5.59,0.43-8.4,0.04c-3.22-0.45-7.82-4.78-8.48-8.73c-0.56-3.36,1.94-5.22,4.5-6.37c4.79-2.15,8.5-5.63,12.44-8.87
				c1.17-0.42,2.42-0.42,3.61-0.74c4.75-0.12,9.49-0.67,14.24-0.11c4.91-1.07,9.08,1.73,13.63,2.56c1.28,0.24,2.03,1.42,2.1,2.81
				c0.06,1.21-0.49,2.49-1.58,2.57c-3.12,0.21-3.73,3.02-5.46,4.64c-2.94,5.1-8.99,7.06-12.27,11.84c-1.38,2.01-4.76-0.28-5.15,1.18
				c-0.69,2.66-2.55,2.79-4.37,3.45C101.15,94.22,101.9,93.97,101.3,94.16z"/>
			<path class="st35" d="M97.53,67.25c-3.5,2.62-5.04,7.35-10.35,8.23c-2.32,0.39-5.2,2.14-5.84,5.3c4.61,0.37,2.56,8.92,9.21,7.14
				c2.48-0.67,5.31-0.08,7.99-0.06c-0.12,2.47-1.89,4.33-2.54,6.68c-0.9,3.22-4.67,1.46-6.86,2.72c-8.15,1.95-16.24,3.27-23.78-1.96
				c-1.94-2.16-5.12-2.52-7.05-4.8c-1.34-1.58-2.1-2.96-0.68-4.8c4.99-2.16,10.53,0.2,15.55-1.82c0.52-0.21,1.26,0.06,1.56-0.92
				c-3.03-0.75-7.33,0.67-8.06-4.21c1.24-2.3,1.14-4.93,1.87-7.36c1.96-3.11,5.58-2.84,8.47-4.05c5.47-0.02,10.87-0.82,16.3-1.25
				C94.91,65.95,96.47,65.66,97.53,67.25z"/>
			<path class="st36" d="M365.43,62.92c-5.41,0.6-12.99-0.48-3.73,7.77c4.57,4.07-0.63,19.78-7.48,23.95
				c-2.37,1.44-3.11,3.67-4.9,5.26c-1.87-1.35-1.71-3.25-1.13-5.03c0.49-1.49,0.55-2.66-0.78-3.67c-1.39-2.81-2.78-5.59-6.85-4.21
				c-0.41,0.14-1.02,0.11-1.36-0.15c-3.16-2.37-6.73-4.27-9.13-7.55c1.88-3.66,6.6-3.7,9.01-6.9c0.76-1.01,2.92,0.35,4.36,0.97
				c0.96,0.42,2.15,1.32,2.72-0.28c0.4-1.1-0.26-2.25-1.39-2.67c-2.78-1.03-5.18-2.99-8.32-3.14c-1.91-0.09-3.8-0.61-5.18-1.99
				c-1.75-1.75-1.77-3.28,1.03-4c10.37,0.01,20.72-0.25,31.08,0.13C364.29,61.63,365.04,62.04,365.43,62.92z"/>
			<path class="st37" d="M968.39,91.54c0.91-3.68,1.81-7.36,2.73-11.08c-3.35,1.7-7.04,3.47-9.48-1.67
				c-0.12-0.26-1.51-0.25-1.53-0.2c-1.7,8.02-9.76,2.01-13.43,5.86c-0.56,0.59-2.66,0.52-3.45-0.05c-1.59-1.14,0.45-2.02,0.75-3.06
				c2.09-7.18-3.47-7.21-7.96-8.23c2.31-2.07,5.23-1.43,7.62-0.93c7.97,1.67,15.91-0.04,23.85,0.38c3.89,0.2,7.82-0.45,11.72,0.28
				c0.8,0.03,1.6,0.06,2.4,0.09c0.72,0.67,1.73,0.38,2.54,0.76c2.37,0.5,5.12-0.23,6.93,2.07c0.34,3.3-0.87,4.93-4.46,5.71
				C979.62,82.98,973.64,86.72,968.39,91.54z"/>
			<path class="st38" d="M101.3,94.16c0.72-0.55,2.16-1.28,2.07-1.63c-2.08-8.22,1.01-4.85,6.3-4.53
				c3.92,0.24,8.32-7.31,12.51-11.38c3.22-0.38,4.22-4.16,7.68-4.55c3.19-0.37,6.52-0.81,8.38-4.57c1.07-2.15,3.85-1.8,5.63,0.09
				c2.36,2.49,5.38,2.17,8.27,1.98c1.63-0.11,3.83-0.51,4.33-2.26c0.53-1.84-1.97-1.97-2.89-3.09c-2.23-1.54-4.78-0.94-7.21-1.1
				c-1.63-0.11-3.52,0.45-4.4-1.62c3.81-0.27,7.63-0.55,11.44-0.82c3.92-0.96,8.08,0.38,11.98-1.32c1.1-0.48,2.42,0.34,3.15,1.52
				c2.94,5.79-2.43,7.46-5.52,8.79c-8.55,3.66-16.54,8.61-27.05,7.33c-4.38-0.53-10.61,1.83-14.17,7.83
				C117.59,91.87,108.58,91.89,101.3,94.16z"/>
			<path class="st39" d="M340.76,107.49c-6.75,1.89-12.7,5.79-20.23,6.02c-4.74,0.15-8.83-0.09-12.84-2.4
				c-4.25-3.53-3.67-8.2-2.69-12.69c0.78-3.55,0.35-6.62-1.68-9.57c0.6-5.78,2.88-8.23,8.05-8.66c2.75,0.8,2.54,3.5,3.57,5.4
				c0.11,0.47,0.1,0.94-0.01,1.4c-3.49,3.4-4.32,7.12-2.17,11.7c1.02,2.18,0.62,4.88,0.91,7.33c0.15,1.21,0.9,1.94,2.19,2.04
				c0.33,0.02,0.76,0.01,0.85-0.24c0.42-1.1-0.55-1.67-1.1-2.3c-2.82-3.23-2.81-7.45-4.02-11.23c-0.5-1.56,0.23-3.59,2.35-2.92
				c2.47,0.79,4.59-0.78,6.9-0.28c1.72,1.73,2.95,3.73,3.36,6.17c-0.74,2.98,1,7.15,3.55,7.98c1.06,0.34,3.19,1.31,2.3-1.57
				c-0.88-2.84,0.41-4.46,3.14-5.15c1.24-0.31,1.52-1.49,2.28-2.22c1.08-0.81,2.22-1.47,3.66-1.27
				C344.36,98.58,342.46,103.05,340.76,107.49z"/>
			<path class="st40" d="M1112.2,80.37c2.92-11.17-0.3-13.26-14.51-10.42c-7.58,1.51-15.37,2.09-23.09,2.82
				c-1.26,0.12-2.65-1.14-3.97-1.76c0.17-0.39,0.44-0.66,0.84-0.81c32.07-5.91,64.38-0.68,96.54-2.03c1.9,0.69,3.8,1.38,5.69,2.08
				c-3.1,0.71-6.18,1.54-9.31,2.08c-1.24,0.21-2.59-0.23-3.9-0.37c-3.83-0.09-7.37-3.48-11.43-0.96c-0.24,0.35-0.52,0.38-0.85,0.11
				c-2.22-0.03-4.43-0.06-6.65-0.09c-4.39,4.57-9.18,5.34-15.15,2.64c-4.42-2-6.75-0.74-8.16,2.76c-1.38,2.19,0.17,5.53-2.85,7.08
				C1113.48,83.32,1112.04,82.65,1112.2,80.37z"/>
			<path class="st41" d="M57.84,85.98c-0.57,5.52,6.8,4.81,7.53,9.32c-8.6-1.94-25.33-19.04-25.53-26.11
				c1.64-2.59,4.33-1.83,6.71-2.02c3.27-0.27,6.43,0.84,9.68,0.84c3.11,0.09,6.16,0.86,9.3,0.78c1.99-0.05,3.8,0.43,3.84,2.97
				c0.75,2.71,2.15,5.6-2.09,6.82c-1.85,1.23-3.61,0.27-5.38-0.22c-3.35-0.93-4.96,0.35-4.46,3.71
				C57.62,83.36,58.79,84.56,57.84,85.98z"/>
			<path class="st42" d="M673.95,66.25c-2.53,0.08-5.05,0.15-7.58,0.23c-33.06-0.39-66.12-0.78-99.17-1.16
				c-1.9-4.9,2.66-1.48,3.6-2.71c1.9-2.62,4.78-1.95,7.36-2.01c21.03-0.54,42.04,0.55,63.06,0.98c6.59,0.13,13.15,0.78,19.74,0.62
				c3.62,1.2,7.39,0.73,11.09,1.04C673.69,63.36,676.21,63.48,673.95,66.25z"/>
			<path class="st43" d="M303.94,88.85c4.25,0.99,4.35,4.57,3.53,7.33c-1.52,5.13-0.81,9.97,0.23,14.93c-2.2,0-4.4,0.01-6.6,0.01
				c-3.18-4.34-6.37-8.68-9.55-13.02c-0.23-2.77-1.1-5.66,1.4-7.96c1.98-0.85,3.89-1.9,6.01-2.42
				C300.79,87.37,302.25,88.59,303.94,88.85z"/>
			<path class="st44" d="M271.75,62.84c-14.22-0.1-28.45-0.19-42.67-0.29c-7.83-0.3-15.67-0.6-23.5-0.89
				c-3.08-0.91-6.24-0.19-9.36-0.42c-0.76-0.05-1.82,0.11-1.99-0.74c-0.22-1.09,0.8-1.55,1.74-1.81c0.92-0.25,1.87-0.23,2.81-0.24
				c10.37-0.1,20.75,0.4,31.08-0.93c18.19,0.12,36.39,0.21,54.59,0.26c6.17,0.02,12.51,0.14,18.71,1.14
				c2.35,2.9-0.39,2.77-2.01,3.17c-3.14,0.78-6.41-1.21-9.53,0.39c-0.91,0.09-1.82,0.19-2.73,0.28
				C283.19,66.04,277.47,64.07,271.75,62.84z"/>
			<path class="st45" d="M795.13,71.89c-4.52,0.76-9.15-2.52-13.68,0.39c-0.39,0.25-2.26-0.72-2.45-1.39
				c-0.56-2.05,1.31-1.6,2.38-1.64c3.41-0.13,6.83-0.13,10.24-0.18c11.59,2.11,23.27,0.88,34.92,0.87
				c16.02-0.02,32.05,0.17,48.07,0.27c-3.18,4.06-7.64,0.57-11.29,1.86c-17.43,0.59-34.89,0.87-52.29,1.93
				C805.41,74.33,800.77,69.83,795.13,71.89z"/>
			<path class="st46" d="M365.43,62.92c-0.69-0.11-1.37-0.22-2.06-0.33c-0.46-0.94-0.36-1.77,0.47-2.47
				c1.9-1.08,3.99-0.73,6.02-0.74c13.71-0.04,27.43-0.03,41.14-0.01c4.88,0.01,9.77,0.06,14.62-0.71c1.69,0.03,3.13,0.61,4.2,1.95
				c10.71,0.36,21.42,0.72,32.13,1.08c0.92,1.69-0.01,2.31-1.52,2.29c-2.32-0.03-4.66,0.39-6.95-0.3
				c-7.58,0.03-15.15,0.05-22.73,0.08C408.98,63.49,387.21,63.21,365.43,62.92z"/>
			<path class="st28" d="M890.76,94.35c0.26-1.06-0.34-3.38,1.3-2.79c5.5,1.96,10.68,3.66,16.25-0.03c0.67-0.44,6.32,0.07,2.25,4.16
				c-0.63,0.64-0.78,1.73-1.38,2.41c-2.08,2.33-2.4,7.62-5.86,6.81c-3.07-0.72-5.59-4.56-7.85-7.41c-1.11-1.4-2.07-2.15-3.74-2.18
				C891.39,95,891.08,94.68,890.76,94.35z"/>
			<path class="st47" d="M56.78,70.14c-5.65-0.32-11.3-0.64-16.95-0.95c-1.31-0.6-2.62-1.2-3.94-1.8c0.13-6.12,4.8-5.34,8.26-4.49
				c5.53,1.36,11.56-0.97,16.71,2.45c-0.14,1.27-1.29,1.9-1.9,2.88C58.43,69.07,57.61,69.62,56.78,70.14z"/>
			<path class="st48" d="M991.09,75.74c-2.47-0.6-4.93-1.2-7.4-1.8c4.06-1.21,8.23-0.23,12.33-0.57c1.82-0.15,3.7,0.45,5.45-0.45
				c4.37-0.36,8.74-0.72,13.11-1.08c15.63-0.72,31.27-0.16,46.91-0.29c0.85-0.01,1.54,0.23,1.44,1.29c-1.25,0.03-2.5,0.07-3.75,0.1
				C1036.48,73.87,1013.79,74.8,991.09,75.74z"/>
			<path class="st49" d="M340.76,107.49c-3.66-3.6,2.04-8.68-2-12.22c-1.36-1.98-1.51-3.8,0.7-5.31c3.03-0.15,5.89,1.71,8.99,0.73
				c6.19,2.53-1.33,6.32,0.87,9.22C344.76,100.54,346.14,107.73,340.76,107.49z"/>
			<path class="st50" d="M230.11,59.23c-11.43,0-22.87,0-34.3,0c-0.01,0.36-0.01,0.73-0.02,1.09c3.26,0.44,6.52,0.89,9.78,1.33
				c-9.82-0.28-19.64-0.57-29.46-0.85c2.27-4.58,6.81-2.92,10.46-3.71c2.53,0.01,5.06,0.02,7.59,0.03c3.13,1.61,6.43,0.72,9.66,0.62
				c8.44-0.26,16.89-0.66,25.32,0.21C229.62,58.27,229.95,58.69,230.11,59.23z"/>
			<path class="st51" d="M186.57,57.1c-3.49,1.24-6.97,2.47-10.46,3.71c-2.53,0.02-5.06,0.03-7.59,0.05
				c-5.04-0.07-10.08-0.13-15.13-0.2c6.51,0.42,11.2-6.08,17.99-4.59C176.45,56.41,181.51,56.76,186.57,57.1z"/>
			<path class="st38" d="M89.14,97.26c6.23-0.13,4.84-7.66,9.4-9.4c1.07,0.43,2.68,0.58,3.08,1.35c0.85,1.61-0.91,1.58-1.92,2.18
				c-2.39,1.42-0.76,2.28,0.7,3.03C97.34,98.03,93.06,96.96,89.14,97.26z"/>
			<path class="st52" d="M1281.69,59.06c-0.31-0.11-0.61-0.22-0.92-0.33c1.9-4.17-2.78-2.89-3.89-4.57
				c9.21-0.22,18.43-0.44,27.64-0.66c1.96,0.39,3.91,0.78,6.4,1.28c-2.75,0.37-4.98,0.68-7.21,0.98
				C1296.39,56.95,1288.61,55.22,1281.69,59.06z"/>
			<path class="st53" d="M949.4,67.34c6.25-3.38,12.95-1.25,19.43-1.45c10.94-0.33,21.89-0.21,32.84-0.28
				c0.67,1.03,2.48,0.41,2.84,1.89C986.13,68.77,967.76,68.26,949.4,67.34z"/>
			<path class="st54" d="M1004.51,67.5c-0.74-0.93-3.48,1.04-2.84-1.9c20.87-0.58,41.74-1.19,62.61-1.69
				c0.81-0.02,1.65,0.97,2.48,1.49C1046,66.11,1025.25,66.8,1004.51,67.5z"/>
			<path class="st55" d="M1162.38,63.38c-0.7-0.32-1.41-0.64-2.11-0.96c0.21-0.23,0.41-0.65,0.63-0.67
				c12.43-0.81,24.85-2.31,37.34-1.12C1186.48,63.94,1174.45,63.91,1162.38,63.38z"/>
			<path class="st37" d="M934.42,73.04c0.36,1.95-1.95,4.22,0.71,5.9c-1.12,1.13-2.21,2.29-3.41,3.34c-0.12,0.11-1.35-0.64-1.3-0.79
				c3.12-11.65-5.85-7.75-11.21-8.57c-2.49-0.38-5.24,1.08-7.49-1c2.54-0.3,5.07-0.72,7.62-0.87c3.14-0.19,6.28-0.15,9.43-0.21
				c0.57,0.04,1.15,0.08,1.72,0.12C931.57,72.05,933.66,71.32,934.42,73.04z"/>
			<path class="st56" d="M934.42,73.04c-1.31-0.69-2.63-1.39-3.94-2.08c16.24,0.62,32.49,1.24,48.74,1.87
				c-14.39,0.09-28.79,0.18-43.18,0.27C935.49,73.08,934.95,73.06,934.42,73.04z"/>
			<path class="st56" d="M1062.93,72.83c-14.24-0.26-28.47-0.52-42.71-0.78c-1.88-0.04-3.76-0.14-5.64-0.21
				c18.96-0.54,37.93-1.08,56.89-1.63c-0.28,0.27-0.56,0.54-0.85,0.81C1068.06,71.62,1065.5,72.23,1062.93,72.83z"/>
			<path class="st56" d="M1001.48,72.92c-5.93,0.34-11.86,0.68-17.78,1.02c-0.69-0.34-1.38-0.68-2.07-1.02
				C988.24,72.92,994.86,72.92,1001.48,72.92z"/>
			<path class="st57" d="M520.68,49.61c-8.55-0.32-17.09-0.65-25.64-0.97c-0.68-3.44-3.11-3.41-5.86-2.99
				c-1.33,0.2-3.17,0.55-3.12-1.59c0.04-1.66,1.49-1.49,2.84-1.47c7.39,0.1,15.34-2.29,21.93,1.47
				C514.05,45.89,516.63,48.97,520.68,49.61z"/>
			<path class="st58" d="M792.32,63.51c-12.75,0.66-25.32-0.98-37.88-2.85c-2.13-2.07-5.33-2.54-7.71-2.91
				c-8.21-1.3-14.46-8.77-23.67-6.84c-2.7,0.57-5.36-1.25-7.51-3.31c-2.87-2.74-6.49-2.71-9.6-0.15c-0.6,0.49-1.09,1.41-1.79,1.46
				c-5.74,0.42-10.35,3.4-15.02,6.26c-4.2,0.47-8.44,1.09-12.16-1.71c-3.38-2.54-2.83-7.7-0.72-8.09c6.41-1.2,10.14-6.5,15.81-8.38
				c15.38-5.1,30.7-3.67,46.17,0.09c11.54,2.8,23.21,4.86,34.36,9.27c2.95,1.17-0.19,11.41,8.72,4.84
				C784.18,49.08,791.45,56.61,792.32,63.51z"/>
			<path class="st59" d="M689.13,55.17c2.63-4.86,5.92-8.55,12.31-7.08c3.14,0.72,2.28-3.58,3.96-3.59
				c3.92-0.02,8.69-4.89,11.71,1.91c1.2,2.7,4.4,2.79,7.08,2.66c11.07-0.53,19.71,6.19,29.46,9.54c0.45,0.15,0.53,1.34,0.78,2.05
				c-5.05-0.28-10.11-0.56-15.16-0.84c-3.19-1.14-7.23-0.05-9.46-3.84c-0.51-0.86-2.02,0.24-3.08,0.44
				c-3.78,0.72-7.34,2.94-11.42,1.61c-0.82-0.72-1.52-1.5-2.14-2.43c-1.61-2.44-5.08-3.13-6.56-0.85c-1.96,3.02-4.54,2.91-7.33,2.73
				c-3.69-0.24-7.44,0.75-11.07-0.54C688.53,56.35,688.83,55.76,689.13,55.17z"/>
			<path class="st60" d="M688.22,56.93c4.06,0.02,8.17-0.34,12.18,0.15c4.55,0.56,2.19-5.68,6.85-5.67c5.15,0.02,9.24-0.44,8.56,6.4
				c-0.31,0.6-0.71,0.68-1.21,0.22c-11.67-0.29-23.34-0.59-35.01-0.88C682.46,57.08,685.34,57.01,688.22,56.93z"/>
			<path class="st61" d="M920.03,63.44c-1.97-10.9-9-3.03-13.35-2.93c-3.46,0.08-6.37-0.19-9.34-1.61
				c1.72-7.58,7.32-9.43,14.21-9.35c1.87-1.27,2.4-4.53,5.67-3.71c3.3,1.17,6.05-0.05,9.33-0.9c7.89-2.04,16.34-4.31,23.48,3.24
				c2.96,3.13,7.19-0.99,11.07-0.25c5.38,1.03,4,6.88,7.55,9.64c1.57,1.22-3.99,1.95-6.47,2.19c-2.76,0.26-5.47,0.18-6.02,3.74
				C944.13,63.49,932.08,63.46,920.03,63.44z"/>
			<path class="st21" d="M917.23,45.84c-2.24,0.71-2.07,5.02-5.67,3.71c-0.76-1-2.51-2.32-0.46-3.13
				C912.9,45.71,914.9,42.39,917.23,45.84z"/>
			<path class="st62" d="M429.82,60.62c-1.27,0-2.54,0.01-3.81,0.01c-1.21-0.51-2.49-0.33-3.74-0.31
				c-20.64,0.28-41.29,0.15-61.92,0.24c-17.32,0.08-34.68,0.42-51.99-0.45c-6.86-0.34-13.81-0.23-20.64-1.34
				c-1.44-0.23-3.61-0.19-3.13-2.49c0.49-2.35,2.29-0.63,3.47-0.63c20.81,0.03,41.62-0.03,62.43,0.01c1.88,0,3.78-0.3,5.63,0.29
				c14.17-0.89,28.39,1.55,42.53-0.67c6-0.38,12.01-0.76,18.01-1.13c10.49-0.84,20.99-0.17,31.49-0.36
				c3.92-0.07,7.85-0.01,11.77-0.01c4.56,0,9.11-0.04,13.67,0.03c1.4,0.02,3.58-0.54,2.56,2.27c-13.22,0.35-26.43,0.76-39.65,0.98
				C433.47,57.1,431.39,58.23,429.82,60.62z"/>
			<path class="st24" d="M301.07,38.38c13.82,1.3,27.64,2.51,41.44,4.01c2.08,0.23,5.65,0.34,5.59,2.98
				c-0.04,2.11-3.32,2.05-5.48,2.5c-1.92,0.4-3.68,1.61-5.5,2.46c-7.26,0-14.52-0.01-21.78-0.01c1.43-0.4,2.86-0.81,4.29-1.21
				c-9.25,0.55-18.28-1.02-27.31-2.38c-3.36-0.51-6.69-1.31-10-2.09c-1.21-0.28-2.17-1.36-1.21-2.4c2.23-2.43,5.75-4.62,8.26-2.2
				C294.55,45.08,297.59,41.64,301.07,38.38z"/>
			<path class="st63" d="M356.12,55.95c-22.23,0.04-44.47,0.08-66.7,0.15c-1.29,0-2.59,0.35-3.88,0.53
				c0.59,1.96,2.33,1.26,3.55,1.31c8.16,0.36,16.33,0.73,24.5,0.83c35.94,0.42,71.88,0.74,107.82,1.14
				c1.53,0.02,3.06,0.47,4.59,0.72c-20.83,0.01-41.66,0.02-62.48,0.03c-0.74,0.73-1.65,0.68-2.62,0.67
				c-17.09-0.19-34.18-0.02-51.27-0.11c-1.96-0.01-4.14,0.62-5.73-1.23c-24.6-0.25-49.19-0.5-73.79-0.76c0,0-0.03-0.43-0.03-0.43
				c-0.05-2.43,1.84-2.06,3.32-2.22c4.69-0.5,9.38-0.93,14.07-1.42c0.93-0.1,1.93,0.04,2.37-1.08c15.95,0.32,31.91,0.47,47.85,1
				C317.17,55.75,336.68,53.73,356.12,55.95z"/>
			<path class="st64" d="M249.84,54.09c0.91,0.38,1.81,0.75,2.72,1.13c-0.83,0.29-1.65,0.73-2.51,0.85
				c-6.65,0.94-13.31,1.83-19.96,2.73c-11.03,0.03-22.05,0.1-33.08,0.05c-1.07-0.01-3.21,0.91-2.84-1.73
				c3.46-0.35,6.92-0.71,10.38-1.06c7.77-0.93,15.57-0.15,23.36-0.44c2-0.07,4.06,0.45,6.01-0.42
				C239.22,54.83,244.53,54.46,249.84,54.09z"/>
			<path class="st50" d="M233.91,55.2c-9.79,0.29-19.58,0.57-29.36,0.86c2.54-0.34,5.07-0.68,7.61-1.02
				C219.4,55.1,226.66,55.15,233.91,55.2z"/>
			<path class="st24" d="M266,49.62c5.32,0.18,10.65,0.35,15.97,0.53C276.65,49.98,271.33,49.8,266,49.62z"/>
			<path class="st65" d="M104.21,35.57c0.19,1.44,0.71,3.56,2.35,1.64c6.64-7.75,12.36,0.62,18.47,0.93
				c6.73,0.34,12.39,7.49,20.26,2.91c3.31-1.93,6.8,0.47,8.39,3.23c1.29,2.25,6.32,4.79,1.13,8.38c-1.27,0.88-0.88,1.42,6.11,1.76
				c-8.79,0.81-17.57,1.61-26.36,2.42c-4.41-1.09-6.97-5.8-11.99-5.85c-1.53-0.02-3.08-0.39-4.64-0.07
				c-2.78,0.35-5.6,1.16-8.17-0.72c-0.98-4.18-0.44-4.74,4.53-5.31c-3.76-1.17-6.25,0.66-6.94,5.08c-2.11,1.54-4.31,1.45-6.56,0.35
				c-2.32-1.7-3.08-4.32-3.69-6.84c-1.2-4.93,2.62-6.36,6.15-7.87C103.56,35.6,103.88,35.58,104.21,35.57z"/>
			<path class="st66" d="M110.05,49.53c2.74,0.02,5.48,0.04,8.21,0.06c2.64,2.71,2.22,5.44,0.08,8.19
				c-9.72,0.73-19.44,1.47-29.16,2.2c-4.51,0.72-9.05,0.24-13.58,0.29c-5.08,0.06-7.54-4.01-5.37-8.74
				c0.26-0.57,0.39-1.17,0.59-1.75c2.15-3.19,4.6-2.67,7.04-0.42c1.03,0.94,2.05,1.86,3.13,2.75c2.54,2.07,4.45,3,7.47,0.1
				c2.54-2.44,6.3-2.8,9.39-0.04c1.08,0.96,2.49,1.28,3.49,2.13c-0.98-1.54-1.85-3.15,0.05-4.76c1.91-0.02,3.82-0.03,5.74-0.05
				C108.11,48.89,109.08,49.51,110.05,49.53z"/>
			<path class="st67" d="M141.96,61.48c4.3,1.56,9.38-1.97,13.3,2.01c-2.69,3.14-6.63,3.07-9.98,2.73
				c-5.55-0.56-11.01,0.24-16.43,0.56c-4.57,0.27-8.91-2.28-13.42-0.5c-4.96,0-9.93,0-14.89,0c-1.03-1.73,0-2.09,1.49-2.24
				c2.31-0.23,4.69,0.54,6.95-0.49C119.97,62.87,130.96,62.18,141.96,61.48z"/>
			<path class="st68" d="M108.97,63.56c-2.34,2.33-6.52-0.88-8.43,2.73c-1,0.32-2,0.64-3.01,0.96c-7.25,0.38-14.49,0.76-21.74,1.14
				c-6.07,2.33-11.94,0.92-17.78-0.97c0.95-0.69,1.9-1.39,2.85-2.08C76.98,66.87,92.94,64.3,108.97,63.56z"/>
			<path class="st69" d="M118.34,57.78c-0.02-2.73-0.05-5.46-0.08-8.19c7.7-2.54,12.23,1.85,16.3,7.24
				C129.16,57.15,123.75,57.47,118.34,57.78z"/>
			<path class="st70" d="M72.02,49.66c-2.67,10.57,4.33,10.48,11.54,10.23c1.87-0.07,3.75,0.06,5.62,0.1
				c-8.83,0.19-17.66,0.38-26.49,0.57c3-2.82,2.53-7.8,6.45-10.04C69.88,49.51,70.61,48.48,72.02,49.66z"/>
			<path class="st71" d="M661.7,63.78c-30.3-0.39-60.61-0.79-90.91-1.18c-1.27-0.57-2.54-1.14-3.81-1.72
				c-1.76-1.27-3.49,0.69-5.36,0c-1.39-0.51-2.77-0.74-2.68-2.54c0.08-1.68,1.37-1.82,2.69-1.76c5.27,0.21,10.55-0.47,15.8,0.36
				c28.66,1.31,57.32,2.63,85.97,3.94c9.82,0.32,19.64,0.64,29.45,0.96c2.35,2.09,0.45,2.37-1.2,2.66
				c-4.35,0.76-8.85,1.05-13.08,0.32C672.94,63.84,667.3,64.47,661.7,63.78z"/>
			<path class="st72" d="M661.7,63.78c9.33-0.04,18.67-0.02,28-0.18c1.11-0.02,3.55,1.26,3.16-1.76c16.29,1.15,32.57,2.7,48.88,3.26
				c7.76,0.27,15.53-0.32,23.22,1.21c-12.93,0.07-25.86,0.14-38.8,0.21c-1.23,2.34-3.32,3.72-5.74,2.65
				c-4.61-2.04-9.17-0.72-13.76-0.52c-1.42,0.06-3.06,0.56-3.93-0.69c-2.41-3.43-4.76-2.53-7.3-0.29c-0.33,0.29-0.87,0.31-1.34,0.34
				c-1.1-0.04-1.59-0.79-1.98-1.65c-6.05-0.03-12.1-0.07-18.16-0.1C670.49,62.41,665.53,65.83,661.7,63.78z"/>
			<path class="st73" d="M714.59,58.03c0.4-0.07,0.81-0.14,1.21-0.21c3.15,1.67,5.87-1.88,6.87-2.62c8.18-6.04,10.99,3.91,16.6,4.63
				C731.05,59.23,722.82,58.63,714.59,58.03z"/>
			<path class="st74" d="M577.43,56.94c-4.09,0.05-8.19-0.01-12.28,0.19c-1.74,0.09-3.82-0.91-5.18,1.08
				c1.51,0.5,3.02,0.97,4.51,1.52c0.86,0.32,1.67,0.76,2.5,1.15c-4.71,5.42-10.5-1.9-15.75,1.04c-0.54,0.3-3.62,4.18-5.83,0.69
				c-4.65,0.22-9.23,1.17-13.98,0.59c-3.54-0.43-6.67-2.6-10.45-2c-0.85,0.14-1.95-1.01-1.18-2.39c-5.4-3.55-11.74-0.2-17.4-2.28
				c-1.16-0.43-1.98,1.84-1.16,2.19c4.49,1.89,6.38,7.64,12.03,7.72c1.59,0.02,3.71-0.74,4.34,1.59c0.2,0.75-0.12,2.24-0.62,2.46
				c-1.52,0.67-3.77,1.75-4.79,1.13c-3.39-2.02-6.37-4.72-9.51-7.15c-0.55-0.74-1.8-0.88-1.78-2.09c-6.68-8.09-16.06-5.9-24.75-6.33
				c-4.99-3.97-10.93-0.52-16.24-2c-0.17-0.4-0.03-0.6,0.4-0.61c3.41-0.03,6.81-0.06,10.22-0.09c31.53,0.89,63.05,1.79,94.58,2.68
				C569.22,56.34,573.33,56.64,577.43,56.94z"/>
			<path class="st75" d="M72.02,49.66c-0.96,0.28-1.92,0.57-2.88,0.85c-3.62-11.74,6.84-10.94,12.91-13.76
				c2.04-0.95,4.77-0.39,5.75,2.53c0.94,2.78,2.68,1.04,3.36,0.2c3.22-3.99,7.33-4.78,12.07-3.87c-5.45,4.02-4.86,8.82-1.85,13.94
				c0.57,1.56,0.76,3.45,1.81,4.57c1.1,1.17,3.01,1.59,4.57,2.34c-0.57,0.18-1.2,0.61-1.69,0.49c-3.14-0.77-6.34-1.43-9.3-2.66
				c-0.84-0.35-1.19-3.28-2.63-2.11c-1.79,1.45-5.6-1.29-5.83,3c-0.04,0.81-2.11,2.35-2.39,2.18c-3.17-1.91-6.71-3.63-9.04-6.34
				C75.17,49.02,74.15,48.46,72.02,49.66z"/>
			<path class="st13" d="M460.32,53.45c-0.13,0.2-0.27,0.41-0.4,0.61c-14.42,0.03-28.84,0.06-43.25,0.08
				C431.21,53.91,445.76,53.68,460.32,53.45z"/>
			<path class="st76" d="M453.48,63.7c2.74-1.02,6.35,1.56,8.47-2c1.59-0.3,3.19-0.6,4.78-0.9c0.8,1.75,2.04,2.42,4.07,2.11
				c1.98-0.3,4.05-0.27,5.43,1.63c-0.09,0.46-0.18,0.91-0.26,1.37c-0.55,3.2,5.95,7.87,0.72,8.77c-4.39,0.75-13.91,3.3-13.76-8.22
				C462.99,62.12,456.31,66.18,453.48,63.7z"/>
			<path class="st77" d="M519.79,58.82c6.95-1.11,12.63,5.14,19.81,3.25c1.76-0.46,3.86,0.33,5.8,0.55
				c-9.24,2.91-18.46,4.1-27.53-0.55c-0.57-0.29-0.85-1.15-1.27-1.75C517.67,59.82,518.73,59.32,519.79,58.82z"/>
			<path class="st78" d="M476.24,64.55c-2.23-3.55-10.3,7.3-9.5-3.74c3.4-0.37,6.83-0.56,10.18-1.18c2.32-0.43,2.39,1.32,2.66,2.41
				C480.3,64.98,477.6,64,476.24,64.55z"/>
			<path class="st79" d="M500.9,62.4c0.59,0.7,1.19,1.39,1.78,2.09c-6.06-0.01-12.13,0.03-18.19-0.08
				c-0.71-0.01-1.41-0.86-2.12-1.32c0.87-0.47,1.74-1.35,2.6-1.33C490.29,61.86,495.59,62.16,500.9,62.4z"/>
			<path class="st80" d="M1112.2,80.37c0.95,0.92,1.9,1.85,2.85,2.77c3.54-1.75,1.36-4.93,1.93-7.43c-2.69-6.17,2.27-4.91,5.06-4.58
				c6.56,0.76,13.04,3.43,19.55-0.13c-0.21,5.21,2.21,7.69,7.4,9.45c4.59,1.55,6.01,6.44,4.73,11.23c-0.42,1.57-2.47,4.13-3.17,3.95
				c-2.64-0.67,0.47-2.97-0.22-3.57c-2.57-2.21-6-3.76-9.23-2.79c-4.66,1.4-9.11,3.63-13.43,5.92c-3.59,1.91-7.13,0.84-10.21-0.26
				c-2.68-0.95-1.68-3.55-1.33-6.49c0.64-5.39-6.84-6.43-9.93-10.31c-0.62-0.77-3.55,2.05-4.54-0.93c-0.15-0.46,0.72-1.8,0.98-1.76
				c2.7,0.4,5.46,0.78,8.01,1.68C1111.45,77.42,1111.7,79.25,1112.2,80.37z"/>
			<path class="st80" d="M1148.23,71.1c0.28-0.05,0.56-0.08,0.85-0.11c1.66,0.69,4.8-1.35,4.9,1.61c0.06,1.86-2.47,5.56-3.12,5.41
				C1147.14,77.15,1148.51,73.7,1148.23,71.1z"/>
			<path class="st81" d="M1268.22,62.59c4.8-0.63,9.61-1.25,14.41-1.88c3.24-1.02,5.78-2.87,6.77,3.21
				c0.63,3.87,6.58,1.07,10.07,1.68c0.43,0.07,1.02-1.93,2-0.51c2.58,3.74,4.35-0.17,4.75-1.1c1.08-2.52-1.48-2.68-3.22-3.31
				c-1.21-0.44-2.26-1.27-3.39-1.93c1.46-0.13,3.04-0.69,4.35-0.32c4.91,1.39,6.49,6.37,9.89,9.41c-3.28,2.73,1.56,9.86-5.8,10.41
				c-0.35,0.03-0.82,0.55-0.96,0.93c-1.13,3.25-1.49,7.45-6.87,4.99c4.11-3.71-4.72-2.54-2.4-6.45c1.39-2.35-2.51-3.79-4.31-5.23
				c-1.77-1.41-2.96,0.48-4.33,1.53c-1.36,1.05-2.63,2.85-4.93,1.82c-2.33-1.04-0.54-3.18-1.08-4.13
				c-2.81-4.89-8.43-4.74-12.58-3.89c-3.67,0.76-6.59-2.43-9.98-0.57c-0.19,0.1-1.88-1.46-1.92-2.29c-0.1-1.93,1.87-0.94,2.8-1.47
				C1263.67,62.26,1266.68,67.51,1268.22,62.59z"/>
			<path class="st82" d="M917.23,90.65c-0.25,1.31,1.25,3.16-1.1,3.83c-3.3,0.93-2.28-2.53-3.63-3.65c-1.2-1-1.88-2.6-2.79-3.93
				c0.03-1.34,0.06-2.67,0.09-4.01c-1.14,0.6-2.23,1.35-3.44,1.75c-0.69,0.23-2.04,0.17-2.29-0.24c-0.7-1.14-0.98-2.52-1.42-3.81
				c0.65-0.05,1.38,0.08,1.93-0.18C916.35,74.76,910.67,90.07,917.23,90.65z"/>
			<path class="st28" d="M928.62,89.7c2.25,1.05,4.5,2.11,6.75,3.16c-0.62,0.42-1.2,1.1-1.87,1.21c-3.36,0.52-4.03-2.05-4.89-4.35
				C928.6,89.72,928.62,89.7,928.62,89.7z"/>
			<path class="st83" d="M693.83,67.28c3.17-3.8,6.25-8.49,10.02-0.34c0.22,0.47,3.41-0.24,5.16-0.66
				c5.75-1.38,11.41,2.46,17.16,0.23c2.13,2.79,3.47,5.89,3.73,9.41c0.12,1.67,0.89,2.8,2.69,2.28c1.9-0.54,1.78-1.83,0.84-3.28
				c-1.2-1.86-2.82-4.31-0.03-5.58c3.63-1.65,7.69-2.75,11.24,0.83c2.11,2.13,3.28,4.61,1.54,7.08c-4.34,6.15-4.25,11.22,2.68,15.34
				c0.48,0.29,0.59,1.19,0.86,1.81c-3.8,0.89-7.78,2.89-9.84-2.81c-1.04-2.89-4.03-1.61-6.24-1.89c-0.86-1.36-0.73-2.67,0.22-3.93
				c1.72-1.7,6.21-0.94,4.88-5.35c-6.51,3.93-16.04,1.53-20.22-5.09c-0.53-0.84-0.39-2.28-1.96-2.2c-0.32,0.01-0.58,0.26-0.65,0.57
				c-0.42,1.8,1.21,1.84,2.18,2.47c2.45,1.6,4.37,3.86,7.09,5.16c1.48,0.71,2.07,2.26,1.64,3.99c-3.76,7.31-7.66,7.63-12.87,0.96
				c-0.9-1.16-2.26-1.74-3.25-1.32c-4.46,1.91-6.12-1.22-8.07-3.97c-3.52,1.12-6.41-2.28-10.12-1.18c-1.37,0.41-2.15-1.94-2.27-3.51
				C689.98,72.77,690.94,69.64,693.83,67.28z"/>
			<path class="st84" d="M693.83,67.28c-0.33,1.34-0.82,2.67-0.96,4.03c-0.24,2.38-0.26,4.79-0.37,7.18
				c2.98-2.08,6.16,2.94,9.22-0.25c0.35-0.37,1.68,0.17,2.56,0.29c-0.05,3.07,1.37,6.87-3.76,7.45c-1.29-1.54-2.34-3.45-3.94-4.54
				c-2.24-1.52-4.23,0.25-4.87,2.05c-1.15,3.22,2.42,2.99,4.01,3.93c1.69,1.01,5.14,0.27,4.27,3.4c-0.24,0.86-5.39,1.76-6.07,0.91
				c-4.73-5.93-5.4,0.42-7.65,2.09c-1.45,1.07-3.1,1.88-4.65,2.81c-1.21-2.39,0.96-3.09,2.12-4.4c0.56-0.64,1.02-2.24,0.66-2.64
				c-1.11-1.22-2.52-2.59-4.03-2.94c-1.94-0.44-0.75,1.41-0.98,2.26c-0.51,1.94-1.37,1.28-2.15,0.2c-0.73-1.02-1.36-2.12-2.04-3.19
				c-2.06,1.32-0.65,3.01-0.57,4.59c0.04,0.81-0.54,2.37-0.67,2.35c-1.34-0.18-2.72-0.49-3.92-1.08c-0.26-0.13-0.18-1.77,0.27-2.29
				c2.34-2.75,1.08-8.7,7.26-8.04c0.06-0.79,0.36-2.2,0.15-2.27c-2.61-0.97-1.04-5.44-4.25-5.24c-1.02,0.06-2.06,2.12-2.93-0.11
				c-0.47-1.2-0.29-2.65-0.41-3.98c1.59,0.3,3.84,0.06,4.62,1.01c1.58,1.91,2.63,2.48,4.43,0.51c1.21-1.32,2.74-1.71,4.16-0.47
				c1.6,1.39,0.33,2.24-0.75,3.32c-1.22,1.22-0.25,2.54,0.95,2.93c2.48,0.8,4.44-0.73,4.34-2.87c-0.18-3.69,1.71-5.86,4.21-7.93
				C692.68,66.66,693.25,66.97,693.83,67.28z"/>
			<path class="st85" d="M700.52,85.97c2.7-1.77,2.94-4.75,3.76-7.45c2.9,7.48,16.61,11.65,21.7,6.61c2.95-0.61,6.16-3.74,8.57,0.86
				c-0.3,1.24-0.61,2.48-0.91,3.72c-2.06,7.61-12.98,2.94-15.28,10.68c-0.33,1.12-3.49,2.88-5.76,0.77
				c-1.52-1.41-1.72-2.35-1.01-4.88c1.62-5.78-0.48-10.42-8.02-9.94C702.57,86.41,701.54,86.11,700.52,85.97z"/>
			<path class="st86" d="M293.48,90.61c-1.1,2.38,0.76,5.51-1.93,7.49c-10.7-1.86-13.61-16.75-26.46-15.3
				c-2.33,0.26-3.75-2.27-3.65-4.66c0.08-2.02-1.98-4.47,0.56-6.01c2.15-1.3,3.9,0.63,5.46,1.73c8.52,6.03,17.2,5.36,26.05,0.9
				c0.18,0.13,0.35,0.27,0.53,0.4C292.47,80.26,295.03,85.51,293.48,90.61z"/>
			<path class="st87" d="M303.9,59.99c19.87,0.22,39.75,0.45,59.62,0.67c-0.05,0.64-0.1,1.29-0.15,1.93
				c-10.96,0.04-21.92,0.07-32.88,0.11c-1.47,2.17-3.8,1.94-5.97,1.98c-7.71,0.14-15.42,0.02-23.13,0.09
				c-2.27-0.82-5.04,0.11-6.95-1.95c-0.95-0.11-1.89-0.22-2.84-0.33C295.02,58.33,300.17,62.54,303.9,59.99z"/>
			<path class="st86" d="M294.46,62.82c2.19-0.01,4.38-0.02,6.57-0.04c0.64,1.87,1.23,3.67,3.44,4.48c1.2,0.44,1.99,1.65,1.62,3.01
				c-0.77,2.84-2.61,4.85-5.38,5.97c-2.63,1.06-5.15,1.38-7.07-1.33c0,0-0.15-0.16-0.15-0.16C296.2,70.96,294.24,66.81,294.46,62.82
				z"/>
			<path class="st86" d="M271.75,62.84c5.71-0.02,11.42-0.05,17.14-0.07c0.88,1.79,0.8,4.14-1.33,3.93
				C282.17,66.14,276.27,67.03,271.75,62.84z"/>
			<path class="st88" d="M1256.39,77.44c-1.22-2.01-2.1-3.4-2.84-4.86c-0.04-0.09,1.01-0.72,1.55-1.09
				c0.76,1.41,1.56,2.81,2.24,4.26C1257.43,75.97,1256.95,76.46,1256.39,77.44z"/>
			<path class="st89" d="M115.43,66.29c13.28-0.93,26.55-1.86,39.83-2.8c1.61,1.48,5.51,0.13,5.33,3.47
				c-0.15,2.73-3.55,3.59-5.36,3.7c-4.47,0.26-10.18,4.76-13.2-2.77c-0.45-1.11-2.63-0.6-3.07,0.7c-2.84,8.41-11.99,3.76-16.79,8.02
				c1.59-2.26,1.5-6.6,6.31-4.96c0.15,0.05,0.9-0.87,0.89-1.33c-0.02-0.46-0.57-1.2-1.01-1.29
				C124.06,68.05,119.74,67.19,115.43,66.29z"/>
			<path class="st90" d="M57.84,85.98c-5.71-2.95-2.57-8.36-1.48-11.21c1.37-3.55,3.5,2.19,6.19,1.97c1.51-0.13,3.14,1.17,4.72,1.82
				c1.71,3.5,4.64,2.1,7.37,1.91c1.1-0.08,3.07,0.39,3.21,0.95c0.38,1.54,0,3.26-0.08,4.91c-1.15-0.13-2.33-0.46-3.46-0.35
				C68.81,86.51,63.33,87.93,57.84,85.98z"/>
			<path class="st91" d="M58.01,67.42c5.93,0.32,11.85,0.64,17.78,0.97c-0.84,3.56-4.96,0.99-6.43,3.36
				c-3.9-2.79-8.38-1.13-12.58-1.61C57.19,69.23,57.6,68.33,58.01,67.42z"/>
			<path class="st92" d="M293.64,74.91c4.32,1,7.83,0.35,10.23-3.92c0.94-1.67,1.35-2.69-0.83-2.62c-6.98,0.22-4.97-2.46-2.02-5.59
				c9.83-0.03,19.65-0.06,29.48-0.09c3.54,4.18,9.27,2.59,13.75,4.93c2.88,1.5,3.82,3.06,4.55,5.39c0.29,0.93-0.07,2.8-0.73,3.14
				c-2.41,1.26-4.46-0.23-6.49-1.47c-0.83-0.51-1.89-0.64-2.85-0.95c0.84,1.62,2.73,4.3,2.33,4.69c-2.07,2.03-2.78-2.49-5.02-1.48
				c-1.84,0.83-3.68,1.68-5.52,2.52c-0.85,0.81-1.9,1.02-3.01,0.95c-4.31-0.27-7.88,1.16-10.74,4.37c-0.62,0.69-1.42,1.2-2.41,1.25
				c-2.68-0.56-1.24-3.52-2.82-4.73c-3.79-0.2-7.16-3.47-11.46-0.71c-2.51,1.61-4.03,2.33-1.33,4.9c0.92,0.87,1.59,1.99,0.53,3.28
				c-1.86,0.81-3.07,3.61-5.78,1.85C291.46,85.36,289.47,80.1,293.64,74.91z"/>
			<path class="st93" d="M314.34,86.03c3.16-7.53,8.89-8.9,16.17-6.56c5.24,1.15,8.5,8.9,15.4,4.49c0.85,2.24,1.7,4.49,2.55,6.73
				c-2.92,4.54-5.77,3.58-8.58-0.11c-0.66-0.42-1.37-0.76-1.96-1.28c-6.1-5.45-6.56-5.44-12.57,0.16c-0.34,0.32-0.79,0.49-1.25,0.64
				c-1.84,0.08-3.63,0.68-5.46,0.69c-2.56,0.02-4.48-0.86-4.34-3.88C314.32,86.61,314.33,86.32,314.34,86.03z"/>
			<path class="st49" d="M314.31,86.9c2.84,3.9,6.78,2.05,10.38,1.94c0.88-0.04,1.56,0.32,2.09,0.99c0.79,1.45,0.66,2.73-0.96,3.44
				c-2.1,0.93-3.55-0.29-4.87-1.71c-2.02,1.51-3.25,6.33-6.8,1.42c-0.84-1.17-1.92-0.19-1.47,0.9c1.57,3.81,2.98,7.79,5.3,11.14
				c1.14,1.65,4.34,2.81,2.43,4.9c-2.01,2.2-5.56,0.77-7.79-0.34C309.32,107.94,311.01,88.69,314.31,86.9z"/>
			<path class="st94" d="M325.63,89.79c-0.31-0.32-0.63-0.63-0.94-0.95c1.79-3.13,4.05-6.41,7.96-5.79
				c3.79,0.59,6.67,3.28,7.22,7.52c-0.37,1.56-0.74,3.13-1.11,4.69c-0.87,0.32-1.74,0.64-2.61,0.95c-1.2,0.39-2.07,1.6-3.52,1.38
				c-3.54-0.48-6.21-1.71-5.37-6C327.52,90.3,326.27,90.31,325.63,89.79z"/>
			<path class="st86" d="M299.25,88.76c-1.53-2.73-7.48-5.26-4.48-7.72c4.61-3.78,11.33-7.01,16.75,0.26
				c-4.81,0.29-5.13,4.96-7.58,7.55C302.32,91.55,300.79,89.74,299.25,88.76z"/>
			<path class="st49" d="M333.28,96.29c0.96-0.02,1.92-0.05,2.88-0.07c-0.01,2.1,2.15,5.86-3.16,3.94
				c-0.38-0.14-1.71,0.95-1.78,1.55c-0.16,1.45,0.43,2.65,2.27,2.89c0.77,0.1,1.45,0.8,2.17,1.23c-0.61,0.62-1.13,1.63-1.85,1.79
				c-7.24,1.65-11.12-1.98-12.93-8.42c-0.84-2.98,1.73-1.59,2.92-1.95C326.91,96.52,330.14,96.88,333.28,96.29z"/>
			<path class="st93" d="M333.28,96.29c-3.23-0.38-5.7,6.59-9.48,0.97c-2.68-1.05-4.46-2.54-2.84-5.68
				c1.21-1.47,5.09,3.83,4.68-1.78c2.03,0.03,3.98-3.48,5.74-0.94c1.89,2.74-2.59,2.07-2.77,3.3
				C328.12,95.37,330.77,95.93,333.28,96.29z"/>
			<path class="st26" d="M1116.97,75.72c-0.15,2.6,4.61,6.44-1.93,7.43C1115.69,80.67,1116.33,78.19,1116.97,75.72z"/>
			<path class="st95" d="M110.05,49.53c-1,2.45-1.95,0.24-2.92-0.03c-1.07-6.14,1.52-7.79,10.22-6.53c1.41,0.2,3.14,0.33,3.07,2.14
				c-0.08,1.96-2.02,1.32-3.26,1.73C114.76,47.62,110.82,44.6,110.05,49.53z"/>
			<path class="st32" d="M734.55,85.99c-2.58-2.99-6.03,2.5-8.57-0.86c-1.4-4.42-6.92-3.4-9.49-6.93c-0.9-1.23-3.48-2.1-3.3-4.3
				c0.12-1.56,0.05-4.28,2.84-3.91c2.26,0.3,4.81,1.09,4.33,4.28c-0.62,4.1,3.55,4.01,4.95,3.97c3.73-0.1,7.62,7.11,11.28-0.02
				c0.54-1.06,2.07-1.63,3.13-2.43c0.46,1.11,1.35,2.24,1.31,3.33C740.86,83.11,742.64,89.19,734.55,85.99z"/>
		</g>
	</g>
</g>
</svg>
